<?xml version="1.0" encoding="UTF-8" standalone="no"?>
<svg
        xmlns="http://www.w3.org/2000/svg"
        width="50"
        height="100"
        viewBox="0 0 13.229166 26.458334"
        version="1.1"
        id="svg8">
    <g
            id="layer1"
            transform="translate(-6.2888326,-270.70182)">
        <path
                id="rect843"
                style="opacity:1;fill:#000000;fill-opacity:1;fill-rule:nonzero;stroke:none;stroke-width:0.1104731;stroke-miterlimit:4;stroke-dasharray:none;stroke-opacity:1"
                d="m 10.045635,271.07422 h 0.790142 l -3.2431422,25.71212 -0.7900001,1e-5 z m 9.081681,25.13726 q 0,0.25322 -0.165365,0.41341 -0.160197,0.1602 -0.413411,0.1602 h -2.201416 q -0.253214,0 -0.413411,-0.1602 -0.160197,-0.16019 -0.160197,-0.41341 v -7.51375 h 0.718302 v 7.45174 h 1.917196 v -7.45174 h 0.718302 z m -4.051432,0.57361 h -0.790649 l -1.86552,-3.88607 v 3.88607 h -0.718302 v -8.08736 h 0.718302 v 3.63285 l 1.694987,-3.63285 h 0.780315 v 0.0465 l -1.829346,3.84989 z m 4.051432,-9.38535 q 0,0.25322 -0.165364,0.41342 -0.160197,0.16019 -0.413412,0.16019 h -2.263427 q -0.253215,0 -0.413412,-0.16019 -0.160197,-0.1602 -0.160197,-0.41342 v -6.94014 q 0,-0.25321 0.160197,-0.41341 0.160197,-0.1602 0.413412,-0.1602 h 2.263427 q 0.253215,0 0.413412,0.1602 0.165364,0.1602 0.165364,0.41341 z m -0.718302,-0.062 v -6.81612 h -1.979207 v 6.81612 z m -3.550171,-6.81613 h -1.25057 v 7.45174 h -0.718302 v -7.45174 h -1.260905 v -0.63562 h 3.229777 z m 4.268473,-1.36002 h -0.718302 v -8.08737 h 0.718302 z m -2.036051,-0.57361 q 0,0.25321 -0.160197,0.41341 -0.160197,0.1602 -0.413412,0.1602 h -2.123901 q -0.253215,0 -0.413412,-0.1602 -0.160196,-0.1602 -0.160196,-0.41341 v -6.94015 q 0,-0.25321 0.160196,-0.41341 0.160197,-0.1602 0.413412,-0.1602 h 2.123901 q 0.253215,0 0.413412,0.1602 0.160197,0.1602 0.160197,0.41341 v 1.88102 h -0.72347 v -1.81901 h -1.829346 v 6.81613 h 1.829346 v -2.7957 h -0.862997 v -0.62012 h 1.586467 z"/>
    </g>
</svg>
